<mxfile host="app.diagrams.net" modified="2023-11-15T06:20:36.653Z" agent="Mozilla/5.0 (Windows NT 10.0; Win64; x64) AppleWebKit/537.36 (KHTML, like Gecko) Chrome/119.0.0.0 Safari/537.36" etag="Lqs0cjhHw1okjDqBscow" version="22.1.0" type="github">
  <diagram id="R2lEEEUBdFMjLlhIrx00" name="Page-1">
    <mxGraphModel dx="2490" dy="566" grid="0" gridSize="10" guides="0" tooltips="1" connect="1" arrows="1" fold="1" page="0" pageScale="1" pageWidth="850" pageHeight="1100" math="0" shadow="0" extFonts="Permanent Marker^https://fonts.googleapis.com/css?family=Permanent+Marker">
      <root>
        <mxCell id="0" />
        <mxCell id="1" parent="0" />
        <mxCell id="C-vyLk0tnHw3VtMMgP7b-13" value="PARKINGLOT_DETAILS" style="shape=table;startSize=48;container=1;collapsible=1;childLayout=tableLayout;fixedRows=1;rowLines=0;fontStyle=1;align=center;resizeLast=1;fontColor=#000000;fontSize=18;" parent="1" vertex="1">
          <mxGeometry x="-159" y="285" width="250" height="321" as="geometry" />
        </mxCell>
        <mxCell id="C-vyLk0tnHw3VtMMgP7b-14" value="" style="shape=partialRectangle;collapsible=0;dropTarget=0;pointerEvents=0;fillColor=none;points=[[0,0.5],[1,0.5]];portConstraint=eastwest;top=0;left=0;right=0;bottom=1;fontColor=#000000;" parent="C-vyLk0tnHw3VtMMgP7b-13" vertex="1">
          <mxGeometry y="48" width="250" height="30" as="geometry" />
        </mxCell>
        <mxCell id="C-vyLk0tnHw3VtMMgP7b-15" value="PK" style="shape=partialRectangle;overflow=hidden;connectable=0;fillColor=none;top=0;left=0;bottom=0;right=0;fontStyle=1;fontColor=#000000;" parent="C-vyLk0tnHw3VtMMgP7b-14" vertex="1">
          <mxGeometry width="30" height="30" as="geometry">
            <mxRectangle width="30" height="30" as="alternateBounds" />
          </mxGeometry>
        </mxCell>
        <mxCell id="C-vyLk0tnHw3VtMMgP7b-16" value="parkinglot_id" style="shape=partialRectangle;overflow=hidden;connectable=0;fillColor=none;top=0;left=0;bottom=0;right=0;align=left;spacingLeft=6;fontStyle=5;fontColor=#000000;" parent="C-vyLk0tnHw3VtMMgP7b-14" vertex="1">
          <mxGeometry x="30" width="220" height="30" as="geometry">
            <mxRectangle width="220" height="30" as="alternateBounds" />
          </mxGeometry>
        </mxCell>
        <mxCell id="C-vyLk0tnHw3VtMMgP7b-17" value="" style="shape=partialRectangle;collapsible=0;dropTarget=0;pointerEvents=0;fillColor=none;points=[[0,0.5],[1,0.5]];portConstraint=eastwest;top=0;left=0;right=0;bottom=0;fontColor=#000000;" parent="C-vyLk0tnHw3VtMMgP7b-13" vertex="1">
          <mxGeometry y="78" width="250" height="243" as="geometry" />
        </mxCell>
        <mxCell id="C-vyLk0tnHw3VtMMgP7b-18" value="" style="shape=partialRectangle;overflow=hidden;connectable=0;fillColor=none;top=0;left=0;bottom=0;right=0;fontColor=#000000;" parent="C-vyLk0tnHw3VtMMgP7b-17" vertex="1">
          <mxGeometry width="30" height="243" as="geometry">
            <mxRectangle width="30" height="243" as="alternateBounds" />
          </mxGeometry>
        </mxCell>
        <mxCell id="C-vyLk0tnHw3VtMMgP7b-19" value="operation_day, &#xa;weekday_start_time, &#xa;weekday_end_time, &#xa;saturday_start_time, &#xa;saturday_end_time, &#xa;holiday_start_time, &#xa;holiday_end_time, &#xa;fee_information, &#xa;basic_parking_time, &#xa;basic_parking_fee,&#xa;additional_unit_time, &#xa;additional_unit_fee, &#xa;daily_parking_fee_application_time,&#xa;daily_parking_ticket_fee, &#xa;monthly_pass_fee, &#xa;payment_method, &#xa;tier&#xa;" style="shape=partialRectangle;overflow=hidden;connectable=0;fillColor=none;top=0;left=0;bottom=0;right=0;align=left;spacingLeft=6;fontColor=#000000;" parent="C-vyLk0tnHw3VtMMgP7b-17" vertex="1">
          <mxGeometry x="30" width="220" height="243" as="geometry">
            <mxRectangle width="220" height="243" as="alternateBounds" />
          </mxGeometry>
        </mxCell>
        <mxCell id="QP9m-rpBXJC_WO-0XY1B-29" value="PARKINGLOT_LOCATION" style="shape=table;startSize=48;container=1;collapsible=1;childLayout=tableLayout;fixedRows=1;rowLines=0;fontStyle=1;align=center;resizeLast=1;fontColor=#000000;fontSize=18;" parent="1" vertex="1">
          <mxGeometry x="-159" y="857" width="250" height="120" as="geometry" />
        </mxCell>
        <mxCell id="QP9m-rpBXJC_WO-0XY1B-30" value="" style="shape=partialRectangle;collapsible=0;dropTarget=0;pointerEvents=0;fillColor=none;points=[[0,0.5],[1,0.5]];portConstraint=eastwest;top=0;left=0;right=0;bottom=1;fontColor=#000000;" parent="QP9m-rpBXJC_WO-0XY1B-29" vertex="1">
          <mxGeometry y="48" width="250" height="30" as="geometry" />
        </mxCell>
        <mxCell id="QP9m-rpBXJC_WO-0XY1B-31" value="PK" style="shape=partialRectangle;overflow=hidden;connectable=0;fillColor=none;top=0;left=0;bottom=0;right=0;fontStyle=1;fontColor=#000000;" parent="QP9m-rpBXJC_WO-0XY1B-30" vertex="1">
          <mxGeometry width="30" height="30" as="geometry">
            <mxRectangle width="30" height="30" as="alternateBounds" />
          </mxGeometry>
        </mxCell>
        <mxCell id="QP9m-rpBXJC_WO-0XY1B-32" value="parkinglot_id" style="shape=partialRectangle;overflow=hidden;connectable=0;fillColor=none;top=0;left=0;bottom=0;right=0;align=left;spacingLeft=6;fontStyle=5;fontColor=#000000;" parent="QP9m-rpBXJC_WO-0XY1B-30" vertex="1">
          <mxGeometry x="30" width="220" height="30" as="geometry">
            <mxRectangle width="220" height="30" as="alternateBounds" />
          </mxGeometry>
        </mxCell>
        <mxCell id="QP9m-rpBXJC_WO-0XY1B-33" value="" style="shape=partialRectangle;collapsible=0;dropTarget=0;pointerEvents=0;fillColor=none;points=[[0,0.5],[1,0.5]];portConstraint=eastwest;top=0;left=0;right=0;bottom=0;fontColor=#000000;" parent="QP9m-rpBXJC_WO-0XY1B-29" vertex="1">
          <mxGeometry y="78" width="250" height="39" as="geometry" />
        </mxCell>
        <mxCell id="QP9m-rpBXJC_WO-0XY1B-34" value="" style="shape=partialRectangle;overflow=hidden;connectable=0;fillColor=none;top=0;left=0;bottom=0;right=0;fontColor=#000000;" parent="QP9m-rpBXJC_WO-0XY1B-33" vertex="1">
          <mxGeometry width="30" height="39" as="geometry">
            <mxRectangle width="30" height="39" as="alternateBounds" />
          </mxGeometry>
        </mxCell>
        <mxCell id="QP9m-rpBXJC_WO-0XY1B-35" value="latitude, &#xa;longitude" style="shape=partialRectangle;overflow=hidden;connectable=0;fillColor=none;top=0;left=0;bottom=0;right=0;align=left;spacingLeft=6;fontColor=#000000;" parent="QP9m-rpBXJC_WO-0XY1B-33" vertex="1">
          <mxGeometry x="30" width="220" height="39" as="geometry">
            <mxRectangle width="220" height="39" as="alternateBounds" />
          </mxGeometry>
        </mxCell>
        <mxCell id="QP9m-rpBXJC_WO-0XY1B-36" value="PARKINGLOT_ORGANIZATION" style="shape=table;startSize=48;container=1;collapsible=1;childLayout=tableLayout;fixedRows=1;rowLines=0;fontStyle=1;align=center;resizeLast=1;fontColor=#000000;fontSize=18;" parent="1" vertex="1">
          <mxGeometry x="-159" y="655" width="289" height="158" as="geometry" />
        </mxCell>
        <mxCell id="QP9m-rpBXJC_WO-0XY1B-37" value="" style="shape=partialRectangle;collapsible=0;dropTarget=0;pointerEvents=0;fillColor=none;points=[[0,0.5],[1,0.5]];portConstraint=eastwest;top=0;left=0;right=0;bottom=1;fontColor=#000000;" parent="QP9m-rpBXJC_WO-0XY1B-36" vertex="1">
          <mxGeometry y="48" width="289" height="30" as="geometry" />
        </mxCell>
        <mxCell id="QP9m-rpBXJC_WO-0XY1B-38" value="PK" style="shape=partialRectangle;overflow=hidden;connectable=0;fillColor=none;top=0;left=0;bottom=0;right=0;fontStyle=1;fontColor=#000000;" parent="QP9m-rpBXJC_WO-0XY1B-37" vertex="1">
          <mxGeometry width="30" height="30" as="geometry">
            <mxRectangle width="30" height="30" as="alternateBounds" />
          </mxGeometry>
        </mxCell>
        <mxCell id="QP9m-rpBXJC_WO-0XY1B-39" value="parkinglot_id" style="shape=partialRectangle;overflow=hidden;connectable=0;fillColor=none;top=0;left=0;bottom=0;right=0;align=left;spacingLeft=6;fontStyle=5;fontColor=#000000;" parent="QP9m-rpBXJC_WO-0XY1B-37" vertex="1">
          <mxGeometry x="30" width="259" height="30" as="geometry">
            <mxRectangle width="259" height="30" as="alternateBounds" />
          </mxGeometry>
        </mxCell>
        <mxCell id="QP9m-rpBXJC_WO-0XY1B-40" value="" style="shape=partialRectangle;collapsible=0;dropTarget=0;pointerEvents=0;fillColor=none;points=[[0,0.5],[1,0.5]];portConstraint=eastwest;top=0;left=0;right=0;bottom=0;fontColor=#000000;" parent="QP9m-rpBXJC_WO-0XY1B-36" vertex="1">
          <mxGeometry y="78" width="289" height="80" as="geometry" />
        </mxCell>
        <mxCell id="QP9m-rpBXJC_WO-0XY1B-41" value="" style="shape=partialRectangle;overflow=hidden;connectable=0;fillColor=none;top=0;left=0;bottom=0;right=0;fontColor=#000000;" parent="QP9m-rpBXJC_WO-0XY1B-40" vertex="1">
          <mxGeometry width="30" height="80" as="geometry">
            <mxRectangle width="30" height="80" as="alternateBounds" />
          </mxGeometry>
        </mxCell>
        <mxCell id="QP9m-rpBXJC_WO-0XY1B-42" value="managing_organization_name, &#xa;phone_number, &#xa;providing_agency_code, &#xa;providing_agency_name" style="shape=partialRectangle;overflow=hidden;connectable=0;fillColor=none;top=0;left=0;bottom=0;right=0;align=left;spacingLeft=6;fontColor=#000000;" parent="QP9m-rpBXJC_WO-0XY1B-40" vertex="1">
          <mxGeometry x="30" width="259" height="80" as="geometry">
            <mxRectangle width="259" height="80" as="alternateBounds" />
          </mxGeometry>
        </mxCell>
        <mxCell id="QP9m-rpBXJC_WO-0XY1B-50" value="CAR" style="shape=table;startSize=48;container=1;collapsible=1;childLayout=tableLayout;fixedRows=1;rowLines=0;fontStyle=1;align=center;resizeLast=1;fontColor=#000000;fontSize=18;" parent="1" vertex="1">
          <mxGeometry x="-906" y="798" width="250" height="144.80010986328125" as="geometry" />
        </mxCell>
        <mxCell id="QP9m-rpBXJC_WO-0XY1B-51" value="" style="shape=partialRectangle;collapsible=0;dropTarget=0;pointerEvents=0;fillColor=none;points=[[0,0.5],[1,0.5]];portConstraint=eastwest;top=0;left=0;right=0;bottom=1;fontColor=#000000;" parent="QP9m-rpBXJC_WO-0XY1B-50" vertex="1">
          <mxGeometry y="48" width="250" height="30" as="geometry" />
        </mxCell>
        <mxCell id="QP9m-rpBXJC_WO-0XY1B-52" value="PK" style="shape=partialRectangle;overflow=hidden;connectable=0;fillColor=none;top=0;left=0;bottom=0;right=0;fontStyle=1;fontColor=#000000;" parent="QP9m-rpBXJC_WO-0XY1B-51" vertex="1">
          <mxGeometry width="30" height="30" as="geometry">
            <mxRectangle width="30" height="30" as="alternateBounds" />
          </mxGeometry>
        </mxCell>
        <mxCell id="QP9m-rpBXJC_WO-0XY1B-53" value="Id" style="shape=partialRectangle;overflow=hidden;connectable=0;fillColor=none;top=0;left=0;bottom=0;right=0;align=left;spacingLeft=6;fontStyle=5;fontColor=#000000;" parent="QP9m-rpBXJC_WO-0XY1B-51" vertex="1">
          <mxGeometry x="30" width="220" height="30" as="geometry">
            <mxRectangle width="220" height="30" as="alternateBounds" />
          </mxGeometry>
        </mxCell>
        <mxCell id="QP9m-rpBXJC_WO-0XY1B-54" value="" style="shape=partialRectangle;collapsible=0;dropTarget=0;pointerEvents=0;fillColor=none;points=[[0,0.5],[1,0.5]];portConstraint=eastwest;top=0;left=0;right=0;bottom=0;fontColor=#000000;" parent="QP9m-rpBXJC_WO-0XY1B-50" vertex="1">
          <mxGeometry y="78" width="250" height="64" as="geometry" />
        </mxCell>
        <mxCell id="QP9m-rpBXJC_WO-0XY1B-55" value="" style="shape=partialRectangle;overflow=hidden;connectable=0;fillColor=none;top=0;left=0;bottom=0;right=0;fontColor=#000000;" parent="QP9m-rpBXJC_WO-0XY1B-54" vertex="1">
          <mxGeometry width="30" height="64" as="geometry">
            <mxRectangle width="30" height="64" as="alternateBounds" />
          </mxGeometry>
        </mxCell>
        <mxCell id="QP9m-rpBXJC_WO-0XY1B-56" value="user_id&#xa;car_number&#xa;car_type" style="shape=partialRectangle;overflow=hidden;connectable=0;fillColor=none;top=0;left=0;bottom=0;right=0;align=left;spacingLeft=6;fontColor=#000000;" parent="QP9m-rpBXJC_WO-0XY1B-54" vertex="1">
          <mxGeometry x="30" width="220" height="64" as="geometry">
            <mxRectangle width="220" height="64" as="alternateBounds" />
          </mxGeometry>
        </mxCell>
        <mxCell id="QP9m-rpBXJC_WO-0XY1B-57" value="PARKING" style="shape=table;startSize=48;container=1;collapsible=1;childLayout=tableLayout;fixedRows=1;rowLines=0;fontStyle=1;align=center;resizeLast=1;fontColor=#000000;fontSize=18;" parent="1" vertex="1">
          <mxGeometry x="-577" y="329" width="250" height="160" as="geometry" />
        </mxCell>
        <mxCell id="QP9m-rpBXJC_WO-0XY1B-58" value="" style="shape=partialRectangle;collapsible=0;dropTarget=0;pointerEvents=0;fillColor=none;points=[[0,0.5],[1,0.5]];portConstraint=eastwest;top=0;left=0;right=0;bottom=1;fontColor=#000000;" parent="QP9m-rpBXJC_WO-0XY1B-57" vertex="1">
          <mxGeometry y="48" width="250" height="30" as="geometry" />
        </mxCell>
        <mxCell id="QP9m-rpBXJC_WO-0XY1B-59" value="PK" style="shape=partialRectangle;overflow=hidden;connectable=0;fillColor=none;top=0;left=0;bottom=0;right=0;fontStyle=1;fontColor=#000000;" parent="QP9m-rpBXJC_WO-0XY1B-58" vertex="1">
          <mxGeometry width="30" height="30" as="geometry">
            <mxRectangle width="30" height="30" as="alternateBounds" />
          </mxGeometry>
        </mxCell>
        <mxCell id="QP9m-rpBXJC_WO-0XY1B-60" value="Id" style="shape=partialRectangle;overflow=hidden;connectable=0;fillColor=none;top=0;left=0;bottom=0;right=0;align=left;spacingLeft=6;fontStyle=5;fontColor=#000000;" parent="QP9m-rpBXJC_WO-0XY1B-58" vertex="1">
          <mxGeometry x="30" width="220" height="30" as="geometry">
            <mxRectangle width="220" height="30" as="alternateBounds" />
          </mxGeometry>
        </mxCell>
        <mxCell id="QP9m-rpBXJC_WO-0XY1B-61" value="" style="shape=partialRectangle;collapsible=0;dropTarget=0;pointerEvents=0;fillColor=none;points=[[0,0.5],[1,0.5]];portConstraint=eastwest;top=0;left=0;right=0;bottom=0;fontColor=#000000;" parent="QP9m-rpBXJC_WO-0XY1B-57" vertex="1">
          <mxGeometry y="78" width="250" height="81" as="geometry" />
        </mxCell>
        <mxCell id="QP9m-rpBXJC_WO-0XY1B-62" value="" style="shape=partialRectangle;overflow=hidden;connectable=0;fillColor=none;top=0;left=0;bottom=0;right=0;fontColor=#000000;" parent="QP9m-rpBXJC_WO-0XY1B-61" vertex="1">
          <mxGeometry width="30" height="81" as="geometry">
            <mxRectangle width="30" height="81" as="alternateBounds" />
          </mxGeometry>
        </mxCell>
        <mxCell id="QP9m-rpBXJC_WO-0XY1B-63" value="user_id&#xa;parkinglot_id&#xa;recent_parkinglot_id &#xa;is_parking&#xa;tier" style="shape=partialRectangle;overflow=hidden;connectable=0;fillColor=none;top=0;left=0;bottom=0;right=0;align=left;spacingLeft=6;fontColor=#000000;" parent="QP9m-rpBXJC_WO-0XY1B-61" vertex="1">
          <mxGeometry x="30" width="220" height="81" as="geometry">
            <mxRectangle width="220" height="81" as="alternateBounds" />
          </mxGeometry>
        </mxCell>
        <mxCell id="QP9m-rpBXJC_WO-0XY1B-71" value="REVIEW" style="shape=table;startSize=48;container=1;collapsible=1;childLayout=tableLayout;fixedRows=1;rowLines=0;fontStyle=1;align=center;resizeLast=1;fontColor=#000000;fontSize=18;" parent="1" vertex="1">
          <mxGeometry x="-576" y="569" width="250" height="150.65008544921875" as="geometry" />
        </mxCell>
        <mxCell id="QP9m-rpBXJC_WO-0XY1B-72" value="" style="shape=partialRectangle;collapsible=0;dropTarget=0;pointerEvents=0;fillColor=none;points=[[0,0.5],[1,0.5]];portConstraint=eastwest;top=0;left=0;right=0;bottom=1;fontColor=#000000;" parent="QP9m-rpBXJC_WO-0XY1B-71" vertex="1">
          <mxGeometry y="48" width="250" height="30" as="geometry" />
        </mxCell>
        <mxCell id="QP9m-rpBXJC_WO-0XY1B-73" value="PK" style="shape=partialRectangle;overflow=hidden;connectable=0;fillColor=none;top=0;left=0;bottom=0;right=0;fontStyle=1;fontColor=#000000;" parent="QP9m-rpBXJC_WO-0XY1B-72" vertex="1">
          <mxGeometry width="30" height="30" as="geometry">
            <mxRectangle width="30" height="30" as="alternateBounds" />
          </mxGeometry>
        </mxCell>
        <mxCell id="QP9m-rpBXJC_WO-0XY1B-74" value="Id" style="shape=partialRectangle;overflow=hidden;connectable=0;fillColor=none;top=0;left=0;bottom=0;right=0;align=left;spacingLeft=6;fontStyle=5;fontColor=#000000;" parent="QP9m-rpBXJC_WO-0XY1B-72" vertex="1">
          <mxGeometry x="30" width="220" height="30" as="geometry">
            <mxRectangle width="220" height="30" as="alternateBounds" />
          </mxGeometry>
        </mxCell>
        <mxCell id="QP9m-rpBXJC_WO-0XY1B-75" value="" style="shape=partialRectangle;collapsible=0;dropTarget=0;pointerEvents=0;fillColor=none;points=[[0,0.5],[1,0.5]];portConstraint=eastwest;top=0;left=0;right=0;bottom=0;fontColor=#000000;" parent="QP9m-rpBXJC_WO-0XY1B-71" vertex="1">
          <mxGeometry y="78" width="250" height="70" as="geometry" />
        </mxCell>
        <mxCell id="QP9m-rpBXJC_WO-0XY1B-76" value="" style="shape=partialRectangle;overflow=hidden;connectable=0;fillColor=none;top=0;left=0;bottom=0;right=0;fontColor=#000000;" parent="QP9m-rpBXJC_WO-0XY1B-75" vertex="1">
          <mxGeometry width="30" height="70" as="geometry">
            <mxRectangle width="30" height="70" as="alternateBounds" />
          </mxGeometry>
        </mxCell>
        <mxCell id="QP9m-rpBXJC_WO-0XY1B-77" value="user_id&#xa;parkinglot_id&#xa;rating&#xa;comment" style="shape=partialRectangle;overflow=hidden;connectable=0;fillColor=none;top=0;left=0;bottom=0;right=0;align=left;spacingLeft=6;fontColor=#000000;" parent="QP9m-rpBXJC_WO-0XY1B-75" vertex="1">
          <mxGeometry x="30" width="220" height="70" as="geometry">
            <mxRectangle width="220" height="70" as="alternateBounds" />
          </mxGeometry>
        </mxCell>
        <mxCell id="QP9m-rpBXJC_WO-0XY1B-78" value="FAVORITE_PARKINGLOT" style="shape=table;startSize=48;container=1;collapsible=1;childLayout=tableLayout;fixedRows=1;rowLines=0;fontStyle=1;align=center;resizeLast=1;fontColor=#000000;fontSize=18;" parent="1" vertex="1">
          <mxGeometry x="-575" y="801" width="250" height="120.80010986328125" as="geometry" />
        </mxCell>
        <mxCell id="QP9m-rpBXJC_WO-0XY1B-79" value="" style="shape=partialRectangle;collapsible=0;dropTarget=0;pointerEvents=0;fillColor=none;points=[[0,0.5],[1,0.5]];portConstraint=eastwest;top=0;left=0;right=0;bottom=1;fontColor=#000000;" parent="QP9m-rpBXJC_WO-0XY1B-78" vertex="1">
          <mxGeometry y="48" width="250" height="30" as="geometry" />
        </mxCell>
        <mxCell id="QP9m-rpBXJC_WO-0XY1B-80" value="PK" style="shape=partialRectangle;overflow=hidden;connectable=0;fillColor=none;top=0;left=0;bottom=0;right=0;fontStyle=1;fontColor=#000000;" parent="QP9m-rpBXJC_WO-0XY1B-79" vertex="1">
          <mxGeometry width="30" height="30" as="geometry">
            <mxRectangle width="30" height="30" as="alternateBounds" />
          </mxGeometry>
        </mxCell>
        <mxCell id="QP9m-rpBXJC_WO-0XY1B-81" value="Id" style="shape=partialRectangle;overflow=hidden;connectable=0;fillColor=none;top=0;left=0;bottom=0;right=0;align=left;spacingLeft=6;fontStyle=5;fontColor=#000000;" parent="QP9m-rpBXJC_WO-0XY1B-79" vertex="1">
          <mxGeometry x="30" width="220" height="30" as="geometry">
            <mxRectangle width="220" height="30" as="alternateBounds" />
          </mxGeometry>
        </mxCell>
        <mxCell id="QP9m-rpBXJC_WO-0XY1B-82" value="" style="shape=partialRectangle;collapsible=0;dropTarget=0;pointerEvents=0;fillColor=none;points=[[0,0.5],[1,0.5]];portConstraint=eastwest;top=0;left=0;right=0;bottom=0;fontColor=#000000;" parent="QP9m-rpBXJC_WO-0XY1B-78" vertex="1">
          <mxGeometry y="78" width="250" height="41" as="geometry" />
        </mxCell>
        <mxCell id="QP9m-rpBXJC_WO-0XY1B-83" value="" style="shape=partialRectangle;overflow=hidden;connectable=0;fillColor=none;top=0;left=0;bottom=0;right=0;fontColor=#000000;" parent="QP9m-rpBXJC_WO-0XY1B-82" vertex="1">
          <mxGeometry width="30" height="41" as="geometry">
            <mxRectangle width="30" height="41" as="alternateBounds" />
          </mxGeometry>
        </mxCell>
        <mxCell id="QP9m-rpBXJC_WO-0XY1B-84" value="user_id&#xa;parkinglot_id" style="shape=partialRectangle;overflow=hidden;connectable=0;fillColor=none;top=0;left=0;bottom=0;right=0;align=left;spacingLeft=6;fontColor=#000000;" parent="QP9m-rpBXJC_WO-0XY1B-82" vertex="1">
          <mxGeometry x="30" width="220" height="41" as="geometry">
            <mxRectangle width="220" height="41" as="alternateBounds" />
          </mxGeometry>
        </mxCell>
        <mxCell id="QP9m-rpBXJC_WO-0XY1B-103" value="" style="fontSize=12;html=1;endArrow=ERoneToMany;rounded=0;exitX=0.498;exitY=1.041;exitDx=0;exitDy=0;exitPerimeter=0;" parent="1" source="QP9m-rpBXJC_WO-0XY1B-47" target="QP9m-rpBXJC_WO-0XY1B-50" edge="1">
          <mxGeometry width="100" height="100" relative="1" as="geometry">
            <mxPoint x="-780" y="734" as="sourcePoint" />
            <mxPoint x="-874" y="738" as="targetPoint" />
          </mxGeometry>
        </mxCell>
        <mxCell id="QP9m-rpBXJC_WO-0XY1B-105" value="" style="fontSize=12;html=1;endArrow=ERzeroToMany;endFill=1;rounded=0;exitX=1.007;exitY=0.394;exitDx=0;exitDy=0;exitPerimeter=0;entryX=-0.009;entryY=0.227;entryDx=0;entryDy=0;entryPerimeter=0;" parent="1" source="QP9m-rpBXJC_WO-0XY1B-44" target="QP9m-rpBXJC_WO-0XY1B-75" edge="1">
          <mxGeometry width="100" height="100" relative="1" as="geometry">
            <mxPoint x="-644" y="581" as="sourcePoint" />
            <mxPoint x="-561" y="343" as="targetPoint" />
          </mxGeometry>
        </mxCell>
        <mxCell id="QP9m-rpBXJC_WO-0XY1B-109" value="" style="fontSize=12;html=1;endArrow=ERoneToMany;rounded=0;entryX=-0.003;entryY=0.287;entryDx=0;entryDy=0;exitX=0.996;exitY=0.619;exitDx=0;exitDy=0;exitPerimeter=0;entryPerimeter=0;edgeStyle=orthogonalEdgeStyle;" parent="1" source="QP9m-rpBXJC_WO-0XY1B-47" target="QP9m-rpBXJC_WO-0XY1B-79" edge="1">
          <mxGeometry width="100" height="100" relative="1" as="geometry">
            <mxPoint x="-645" y="719" as="sourcePoint" />
            <mxPoint x="-560" y="779.4999999999998" as="targetPoint" />
          </mxGeometry>
        </mxCell>
        <mxCell id="QP9m-rpBXJC_WO-0XY1B-110" value="" style="fontSize=12;html=1;endArrow=ERmandOne;rounded=0;entryX=0.005;entryY=0.027;entryDx=0;entryDy=0;entryPerimeter=0;exitX=0.996;exitY=0.16;exitDx=0;exitDy=0;exitPerimeter=0;edgeStyle=orthogonalEdgeStyle;" parent="1" source="QP9m-rpBXJC_WO-0XY1B-43" target="QP9m-rpBXJC_WO-0XY1B-61" edge="1">
          <mxGeometry width="100" height="100" relative="1" as="geometry">
            <mxPoint x="-641" y="663.84" as="sourcePoint" />
            <mxPoint x="-561.75" y="563.0019999999998" as="targetPoint" />
          </mxGeometry>
        </mxCell>
        <mxCell id="QP9m-rpBXJC_WO-0XY1B-111" value="" style="fontSize=12;html=1;endArrow=ERzeroToMany;endFill=1;rounded=0;entryX=1.004;entryY=0.166;entryDx=0;entryDy=0;exitX=-0.02;exitY=0.57;exitDx=0;exitDy=0;exitPerimeter=0;edgeStyle=orthogonalEdgeStyle;entryPerimeter=0;" parent="1" source="C-vyLk0tnHw3VtMMgP7b-17" target="QP9m-rpBXJC_WO-0XY1B-71" edge="1">
          <mxGeometry width="100" height="100" relative="1" as="geometry">
            <mxPoint x="-286" y="577" as="sourcePoint" />
            <mxPoint x="-186" y="477" as="targetPoint" />
            <Array as="points">
              <mxPoint x="-292" y="502" />
              <mxPoint x="-292" y="594" />
            </Array>
          </mxGeometry>
        </mxCell>
        <mxCell id="QP9m-rpBXJC_WO-0XY1B-116" value="" style="fontSize=12;html=1;endArrow=ERmandOne;rounded=0;exitX=0.492;exitY=0.001;exitDx=0;exitDy=0;entryX=0.494;entryY=1.022;entryDx=0;entryDy=0;entryPerimeter=0;exitPerimeter=0;" parent="1" source="QP9m-rpBXJC_WO-0XY1B-43" target="QP9m-rpBXJC_WO-0XY1B-68" edge="1">
          <mxGeometry width="100" height="100" relative="1" as="geometry">
            <mxPoint x="-645" y="689" as="sourcePoint" />
            <mxPoint x="-773" y="466" as="targetPoint" />
          </mxGeometry>
        </mxCell>
        <mxCell id="QP9m-rpBXJC_WO-0XY1B-64" value="RECENT_PARKINGLOT" style="shape=table;startSize=48;container=1;collapsible=1;childLayout=tableLayout;fixedRows=1;rowLines=0;fontStyle=1;align=center;resizeLast=1;fontColor=#000000;fontSize=18;" parent="1" vertex="1">
          <mxGeometry x="-905" y="442" width="250" height="134" as="geometry" />
        </mxCell>
        <mxCell id="QP9m-rpBXJC_WO-0XY1B-65" value="" style="shape=partialRectangle;collapsible=0;dropTarget=0;pointerEvents=0;fillColor=none;points=[[0,0.5],[1,0.5]];portConstraint=eastwest;top=0;left=0;right=0;bottom=1;fontColor=#000000;" parent="QP9m-rpBXJC_WO-0XY1B-64" vertex="1">
          <mxGeometry y="48" width="250" height="30" as="geometry" />
        </mxCell>
        <mxCell id="QP9m-rpBXJC_WO-0XY1B-66" value="PK" style="shape=partialRectangle;overflow=hidden;connectable=0;fillColor=none;top=0;left=0;bottom=0;right=0;fontStyle=1;fontColor=#000000;" parent="QP9m-rpBXJC_WO-0XY1B-65" vertex="1">
          <mxGeometry width="30" height="30" as="geometry">
            <mxRectangle width="30" height="30" as="alternateBounds" />
          </mxGeometry>
        </mxCell>
        <mxCell id="QP9m-rpBXJC_WO-0XY1B-67" value="Id" style="shape=partialRectangle;overflow=hidden;connectable=0;fillColor=none;top=0;left=0;bottom=0;right=0;align=left;spacingLeft=6;fontStyle=5;fontColor=#000000;" parent="QP9m-rpBXJC_WO-0XY1B-65" vertex="1">
          <mxGeometry x="30" width="220" height="30" as="geometry">
            <mxRectangle width="220" height="30" as="alternateBounds" />
          </mxGeometry>
        </mxCell>
        <mxCell id="QP9m-rpBXJC_WO-0XY1B-68" value="" style="shape=partialRectangle;collapsible=0;dropTarget=0;pointerEvents=0;fillColor=none;points=[[0,0.5],[1,0.5]];portConstraint=eastwest;top=0;left=0;right=0;bottom=0;fontColor=#000000;" parent="QP9m-rpBXJC_WO-0XY1B-64" vertex="1">
          <mxGeometry y="78" width="250" height="55" as="geometry" />
        </mxCell>
        <mxCell id="QP9m-rpBXJC_WO-0XY1B-69" value="" style="shape=partialRectangle;overflow=hidden;connectable=0;fillColor=none;top=0;left=0;bottom=0;right=0;fontColor=#000000;" parent="QP9m-rpBXJC_WO-0XY1B-68" vertex="1">
          <mxGeometry width="30" height="55" as="geometry">
            <mxRectangle width="30" height="55" as="alternateBounds" />
          </mxGeometry>
        </mxCell>
        <mxCell id="QP9m-rpBXJC_WO-0XY1B-70" value="user_id, &#xa;parking_id&#xa;parking_id" style="shape=partialRectangle;overflow=hidden;connectable=0;fillColor=none;top=0;left=0;bottom=0;right=0;align=left;spacingLeft=6;fontColor=#000000;" parent="QP9m-rpBXJC_WO-0XY1B-68" vertex="1">
          <mxGeometry x="30" width="220" height="55" as="geometry">
            <mxRectangle width="220" height="55" as="alternateBounds" />
          </mxGeometry>
        </mxCell>
        <mxCell id="QP9m-rpBXJC_WO-0XY1B-121" value="" style="fontSize=12;html=1;endArrow=ERzeroToMany;endFill=1;rounded=0;entryX=1;entryY=0.364;entryDx=0;entryDy=0;entryPerimeter=0;exitX=-0.003;exitY=0.098;exitDx=0;exitDy=0;exitPerimeter=0;" parent="1" source="QP9m-rpBXJC_WO-0XY1B-36" target="QP9m-rpBXJC_WO-0XY1B-75" edge="1">
          <mxGeometry width="100" height="100" relative="1" as="geometry">
            <mxPoint x="-285" y="609" as="sourcePoint" />
            <mxPoint x="-185" y="509" as="targetPoint" />
          </mxGeometry>
        </mxCell>
        <mxCell id="QP9m-rpBXJC_WO-0XY1B-122" value="" style="fontSize=12;html=1;endArrow=ERzeroToMany;endFill=1;rounded=0;entryX=1.012;entryY=0.886;entryDx=0;entryDy=0;entryPerimeter=0;exitX=-0.016;exitY=-0.017;exitDx=0;exitDy=0;exitPerimeter=0;edgeStyle=orthogonalEdgeStyle;" parent="1" source="QP9m-rpBXJC_WO-0XY1B-30" target="QP9m-rpBXJC_WO-0XY1B-75" edge="1">
          <mxGeometry width="100" height="100" relative="1" as="geometry">
            <mxPoint x="-278" y="674" as="sourcePoint" />
            <mxPoint x="-178" y="574" as="targetPoint" />
            <Array as="points">
              <mxPoint x="-291" y="905" />
              <mxPoint x="-291" y="709" />
            </Array>
          </mxGeometry>
        </mxCell>
        <mxCell id="QP9m-rpBXJC_WO-0XY1B-124" value="" style="fontSize=12;html=1;endArrow=ERzeroToMany;endFill=1;rounded=0;entryX=1.012;entryY=0.183;entryDx=0;entryDy=0;entryPerimeter=0;exitX=0.004;exitY=0.783;exitDx=0;exitDy=0;exitPerimeter=0;" parent="1" source="C-vyLk0tnHw3VtMMgP7b-14" target="QP9m-rpBXJC_WO-0XY1B-57" edge="1">
          <mxGeometry width="100" height="100" relative="1" as="geometry">
            <mxPoint x="-162" y="350" as="sourcePoint" />
            <mxPoint x="-186" y="521" as="targetPoint" />
          </mxGeometry>
        </mxCell>
        <mxCell id="QP9m-rpBXJC_WO-0XY1B-125" value="" style="fontSize=12;html=1;endArrow=ERzeroToMany;endFill=1;rounded=0;entryX=1.004;entryY=0.247;entryDx=0;entryDy=0;entryPerimeter=0;exitX=-0.015;exitY=0.139;exitDx=0;exitDy=0;exitPerimeter=0;edgeStyle=orthogonalEdgeStyle;" parent="1" target="QP9m-rpBXJC_WO-0XY1B-61" edge="1">
          <mxGeometry width="100" height="100" relative="1" as="geometry">
            <mxPoint x="-120.58499999999958" y="705.6700000000001" as="sourcePoint" />
            <mxPoint x="-273" y="431" as="targetPoint" />
            <Array as="points">
              <mxPoint x="-192" y="706" />
              <mxPoint x="-192" y="426" />
            </Array>
          </mxGeometry>
        </mxCell>
        <mxCell id="QP9m-rpBXJC_WO-0XY1B-126" value="" style="fontSize=12;html=1;endArrow=ERzeroToMany;endFill=1;rounded=0;entryX=1.005;entryY=0.716;entryDx=0;entryDy=0;entryPerimeter=0;exitX=-0.012;exitY=0.917;exitDx=0;exitDy=0;exitPerimeter=0;edgeStyle=orthogonalEdgeStyle;" parent="1" source="QP9m-rpBXJC_WO-0XY1B-30" target="QP9m-rpBXJC_WO-0XY1B-61" edge="1">
          <mxGeometry width="100" height="100" relative="1" as="geometry">
            <mxPoint x="-295" y="851" as="sourcePoint" />
            <mxPoint x="-195" y="751" as="targetPoint" />
            <Array as="points">
              <mxPoint x="-229" y="933" />
              <mxPoint x="-229" y="465" />
            </Array>
          </mxGeometry>
        </mxCell>
        <mxCell id="QP9m-rpBXJC_WO-0XY1B-134" value="" style="fontSize=12;html=1;endArrow=ERzeroToMany;endFill=1;rounded=0;entryX=1;entryY=0.25;entryDx=0;entryDy=0;exitX=-0.009;exitY=0.741;exitDx=0;exitDy=0;exitPerimeter=0;edgeStyle=orthogonalEdgeStyle;" parent="1" source="C-vyLk0tnHw3VtMMgP7b-17" target="QP9m-rpBXJC_WO-0XY1B-78" edge="1">
          <mxGeometry width="100" height="100" relative="1" as="geometry">
            <mxPoint x="-237" y="939" as="sourcePoint" />
            <mxPoint x="-137" y="839" as="targetPoint" />
            <Array as="points">
              <mxPoint x="-264" y="543" />
              <mxPoint x="-264" y="831" />
            </Array>
          </mxGeometry>
        </mxCell>
        <mxCell id="QP9m-rpBXJC_WO-0XY1B-135" value="" style="edgeStyle=elbowEdgeStyle;fontSize=12;html=1;endArrow=ERzeroToMany;endFill=1;rounded=0;entryX=1.009;entryY=0.257;entryDx=0;entryDy=0;entryPerimeter=0;exitX=0;exitY=0.5;exitDx=0;exitDy=0;" parent="1" source="QP9m-rpBXJC_WO-0XY1B-40" target="QP9m-rpBXJC_WO-0XY1B-79" edge="1">
          <mxGeometry width="100" height="100" relative="1" as="geometry">
            <mxPoint x="-238" y="975" as="sourcePoint" />
            <mxPoint x="-138" y="875" as="targetPoint" />
            <Array as="points">
              <mxPoint x="-187" y="813" />
            </Array>
          </mxGeometry>
        </mxCell>
        <mxCell id="QP9m-rpBXJC_WO-0XY1B-136" value="" style="fontSize=12;html=1;endArrow=ERzeroToMany;endFill=1;rounded=0;entryX=0.5;entryY=1;entryDx=0;entryDy=0;exitX=0.004;exitY=0.808;exitDx=0;exitDy=0;exitPerimeter=0;edgeStyle=orthogonalEdgeStyle;" parent="1" source="QP9m-rpBXJC_WO-0XY1B-33" target="QP9m-rpBXJC_WO-0XY1B-78" edge="1">
          <mxGeometry width="100" height="100" relative="1" as="geometry">
            <mxPoint x="-156" y="948.5529999999999" as="sourcePoint" />
            <mxPoint x="-324" y="912" as="targetPoint" />
          </mxGeometry>
        </mxCell>
        <mxCell id="QP9m-rpBXJC_WO-0XY1B-137" value="" style="fontSize=12;html=1;endArrow=ERmandOne;startArrow=ERmandOne;rounded=0;exitX=0.913;exitY=0.022;exitDx=0;exitDy=0;entryX=0.004;entryY=0.25;entryDx=0;entryDy=0;entryPerimeter=0;edgeStyle=orthogonalEdgeStyle;exitPerimeter=0;" parent="1" source="QP9m-rpBXJC_WO-0XY1B-64" target="QP9m-rpBXJC_WO-0XY1B-58" edge="1">
          <mxGeometry width="100" height="100" relative="1" as="geometry">
            <mxPoint x="-521" y="736" as="sourcePoint" />
            <mxPoint x="-571" y="405" as="targetPoint" />
          </mxGeometry>
        </mxCell>
        <mxCell id="QP9m-rpBXJC_WO-0XY1B-43" value="USER" style="shape=table;startSize=48;container=1;collapsible=1;childLayout=tableLayout;fixedRows=1;rowLines=0;fontStyle=1;align=center;resizeLast=1;fontColor=#000000;fontSize=18;" parent="1" vertex="1">
          <mxGeometry x="-905" y="604" width="250" height="165.70004272460938" as="geometry" />
        </mxCell>
        <mxCell id="QP9m-rpBXJC_WO-0XY1B-44" value="" style="shape=partialRectangle;collapsible=0;dropTarget=0;pointerEvents=0;fillColor=none;points=[[0,0.5],[1,0.5]];portConstraint=eastwest;top=0;left=0;right=0;bottom=1;fontColor=#000000;" parent="QP9m-rpBXJC_WO-0XY1B-43" vertex="1">
          <mxGeometry y="48" width="250" height="30" as="geometry" />
        </mxCell>
        <mxCell id="QP9m-rpBXJC_WO-0XY1B-45" value="PK" style="shape=partialRectangle;overflow=hidden;connectable=0;fillColor=none;top=0;left=0;bottom=0;right=0;fontStyle=1;fontColor=#000000;" parent="QP9m-rpBXJC_WO-0XY1B-44" vertex="1">
          <mxGeometry width="30" height="30" as="geometry">
            <mxRectangle width="30" height="30" as="alternateBounds" />
          </mxGeometry>
        </mxCell>
        <mxCell id="QP9m-rpBXJC_WO-0XY1B-46" value="Id" style="shape=partialRectangle;overflow=hidden;connectable=0;fillColor=none;top=0;left=0;bottom=0;right=0;align=left;spacingLeft=6;fontStyle=5;fontColor=#000000;" parent="QP9m-rpBXJC_WO-0XY1B-44" vertex="1">
          <mxGeometry x="30" width="220" height="30" as="geometry">
            <mxRectangle width="220" height="30" as="alternateBounds" />
          </mxGeometry>
        </mxCell>
        <mxCell id="QP9m-rpBXJC_WO-0XY1B-47" value="" style="shape=partialRectangle;collapsible=0;dropTarget=0;pointerEvents=0;fillColor=none;points=[[0,0.5],[1,0.5]];portConstraint=eastwest;top=0;left=0;right=0;bottom=0;fontColor=#000000;" parent="QP9m-rpBXJC_WO-0XY1B-43" vertex="1">
          <mxGeometry y="78" width="250" height="85" as="geometry" />
        </mxCell>
        <mxCell id="QP9m-rpBXJC_WO-0XY1B-48" value="" style="shape=partialRectangle;overflow=hidden;connectable=0;fillColor=none;top=0;left=0;bottom=0;right=0;fontColor=#000000;" parent="QP9m-rpBXJC_WO-0XY1B-47" vertex="1">
          <mxGeometry width="30" height="85" as="geometry">
            <mxRectangle width="30" height="85" as="alternateBounds" />
          </mxGeometry>
        </mxCell>
        <mxCell id="QP9m-rpBXJC_WO-0XY1B-49" value="car_id&#xa;name&#xa;password &#xa;email&#xa;visit_count " style="shape=partialRectangle;overflow=hidden;connectable=0;fillColor=none;top=0;left=0;bottom=0;right=0;align=left;spacingLeft=6;fontColor=#000000;" parent="QP9m-rpBXJC_WO-0XY1B-47" vertex="1">
          <mxGeometry x="30" width="220" height="85" as="geometry">
            <mxRectangle width="220" height="85" as="alternateBounds" />
          </mxGeometry>
        </mxCell>
      </root>
    </mxGraphModel>
  </diagram>
</mxfile>
